# xmcd
#
# Track frame offsets:
#	150
#	17340
#	32100
#	45935
#	63175
#	79075
#	92130
#	110280
#	125920
#	137445
#	153550
#
# Disc length: 2180 seconds
#
# Revision: 1
# Processed by: cddbd v1.5.2PL0 Copyright (c) Steve Scherf et al.
# Submitted via: EZCDAudioConverter 8.5.0.1
#
DISCID=8108820b
DTITLE=Halm - Raised By the Fire
DYEAR=2017
DGENRE=Country
TTITLE0=Lily of the Valley
TTITLE1=Raised By the Fire
TTITLE2=Doctor's Daughers
TTITLE3=This Road Won't Slow Me Down
TTITLE4=Filling Station
TTITLE5=Burnin' Banjo
TTITLE6=Blue Louis
TTITLE7=Goddamn Gun
TTITLE8=Grab a Bag
TTITLE9=Boundaries
TTITLE10=Sealed Bottle
EXTD=
EXTT0=
EXTT1=
EXTT2=
EXTT3=
EXTT4=
EXTT5=
EXTT6=
EXTT7=
EXTT8=
EXTT9=
EXTT10=
PLAYORDER=
